<svg width="512" height="512" viewBox="0 0 512 512" xmlns="http://www.w3.org/2000/svg">
  <defs>
    <linearGradient id="bg" x1="0" y1="0" x2="1" y2="1">
      <stop offset="0" stop-color="#9b85d9"/>
      <stop offset="1" stop-color="#6f54b0"/>
    </linearGradient>
    <filter id="soft" x="-20%" y="-20%" width="140%" height="140%">
      <feDropShadow dx="0" dy="10" stdDeviation="14" flood-color="#3a2f66" flood-opacity="0.28"/>
    </filter>
  </defs>
  <rect x="24" y="24" width="464" height="464" rx="112" fill="url(#bg)"/>
  <g filter="url(#soft)" fill="#ffffff">
    <path d="M256 116 C276 216, 296 236, 396 256 C296 276, 276 296, 256 396 C236 296, 216 276, 116 256 C216 236, 236 216, 256 116 Z"/>
    <path d="M368 120 C376 152, 384 160, 416 168 C384 176, 376 184, 368 216 C360 184, 352 176, 320 168 C352 160, 360 152, 368 120 Z" opacity="0.9"/>
  </g>
</svg>
