<svg xmlns="http://www.w3.org/2000/svg" width="512" height="512" viewBox="0 0 512 512"><defs><linearGradient id="bg" x1="0" x2="1" y1="0" y2="1"><stop offset="0" stop-color="#9b85d9"/><stop offset="1" stop-color="#6f54b0"/></linearGradient><filter id="soft" width="140%" height="140%" x="-20%" y="-20%"><feDropShadow dx="0" dy="10" flood-color="#3a2f66" flood-opacity=".28" stdDeviation="14"/></filter></defs><rect width="464" height="464" x="24" y="24" fill="url(#bg)" rx="112"/><g fill="#fff" filter="url(#soft)"><path d="M256 116 C276 216, 296 236, 396 256 C296 276, 276 296, 256 396 C236 296, 216 276, 116 256 C216 236, 236 216, 256 116 Z"/><path d="M368 120 C376 152, 384 160, 416 168 C384 176, 376 184, 368 216 C360 184, 352 176, 320 168 C352 160, 360 152, 368 120 Z" opacity=".9"/></g></svg>